<svg xmlns="http://www.w3.org/2000/svg" viewBox="0 0 60 60" width="60" height="60">
  <defs>
  </defs>
  <path id="Layer" style="fill-opacity: NaN;fill: #89b700" d="M54.65,29.83c0,13.69 -11.14,24.83 -24.83,24.83c-13.69,0 -24.83,-11.14 -24.83,-24.83c0,-13.69 11.14,-24.83 24.83,-24.83c13.69,0 24.83,11.14 24.83,24.83zM36.52,25.61h-4.56v-2.99c0,-1.12 0.75,-1.39 1.27,-1.39c0.52,0 3.22,0 3.22,0v-4.94l-4.44,-0.02c-4.92,0 -6.04,3.68 -6.04,6.04v3.29h-2.85v5.09h2.85c0,6.53 0,14.4 0,14.4h5.98c0,0 0,-7.94 0,-14.4h4.04z" />
</svg>